<?xml version="1.0" encoding="UTF-8" standalone="no"?>
<svg
   xmlns:dc="http://purl.org/dc/elements/1.1/"
   xmlns:cc="http://creativecommons.org/ns#"
   xmlns:rdf="http://www.w3.org/1999/02/22-rdf-syntax-ns#"
   xmlns:svg="http://www.w3.org/2000/svg"
   xmlns="http://www.w3.org/2000/svg"
   viewBox="0 0 2666.6667 2666.6667"
   height="2666.6667"
   width="2666.6667"
   xml:space="preserve"
   id="svg2"
   version="1.1"><metadata
     id="metadata8"><rdf:RDF><cc:Work
         rdf:about=""><dc:format>image/svg+xml</dc:format><dc:type
           rdf:resource="http://purl.org/dc/dcmitype/StillImage" /></cc:Work></rdf:RDF></metadata><defs
     id="defs6" /><g
     transform="matrix(1.3333333,0,0,-1.3333333,0,2666.6667)"
     id="g10"><g
       transform="scale(0.1)"
       id="g12"><g
         transform="scale(1.22699)"
         id="g14"><path
           id="path16"
           style="fill:#f5f6f5;fill-opacity:0;fill-rule:nonzero;stroke:none"
           d="M 16300,0 H 0 V 16300 H 16300 V 0" /></g><path
         id="path18"
         style="fill:#e0c200;fill-opacity:1;fill-rule:nonzero;stroke:none"
         d="m 14187.5,12208.3 h -8375 c -172.59,0 -312.5,140 -312.5,312.5 0,172.6 139.91,312.5 312.5,312.5 h 10500 c 172.6,0 312.5,-139.9 312.5,-312.5 0,-172.5 -139.9,-312.5 -312.5,-312.5" /><path
         id="path20"
         style="fill:#e0c200;fill-opacity:1;fill-rule:nonzero;stroke:none"
         d="m 14187.5,9687.5 h -8375 c -172.59,0 -312.5,139.9 -312.5,312.5 0,172.6 139.91,312.5 312.5,312.5 h 10500 c 172.6,0 312.5,-139.9 312.5,-312.5 0,-172.6 -139.9,-312.5 -312.5,-312.5" /><path
         id="path22"
         style="fill:#e0c200;fill-opacity:1;fill-rule:nonzero;stroke:none"
         d="m 14187.5,7166.7 h -8375 c -172.59,0 -312.5,139.9 -312.5,312.5 0,172.6 139.91,312.5 312.5,312.5 h 10500 c 172.6,0 312.5,-139.9 312.5,-312.5 0,-172.6 -139.9,-312.5 -312.5,-312.5" /></g></g></svg>